<?xml version="1.0" standalone="no"?>
<!DOCTYPE svg PUBLIC "-//W3C//DTD SVG 20010904//EN"
 "http://www.w3.org/TR/2001/REC-SVG-20010904/DTD/svg10.dtd">
<svg version="1.0" xmlns="http://www.w3.org/2000/svg"
 width="685.000000pt" height="1210.000000pt" viewBox="0 0 685.000000 1210.000000"
 preserveAspectRatio="xMidYMid meet">

<g transform="translate(0.000000,1210.000000) scale(0.100000,-0.100000)"
fill="#000000" stroke="none">
<path d="M3078 12061 l-33 -29 -3 -431 -3 -430 -37 -7 c-412 -70 -739 -198
-1061 -415 -832 -557 -1269 -1569 -1105 -2559 75 -454 305 -964 599 -1328 302
-374 723 -652 1169 -772 115 -32 327 -70 383 -70 l32 0 3 -416 3 -416 33 -29
c42 -38 98 -40 139 -5 l28 24 6 559 c4 307 7 948 8 1424 1 812 2 867 19 882
35 31 169 87 246 102 43 8 108 15 146 15 41 0 95 8 136 21 59 18 77 30 134 88
77 76 106 139 116 251 l7 70 41 0 c22 0 102 -5 177 -11 151 -12 225 -5 322 32
117 45 257 184 293 291 9 27 29 60 47 75 172 150 237 274 237 448 0 168 -68
308 -205 423 -52 44 -62 57 -77 109 -33 115 -125 214 -232 249 -34 12 -53 25
-65 46 -34 63 -91 132 -137 164 -63 45 -123 62 -269 75 l-120 11 -70 73 c-126
132 -287 182 -444 140 -59 -15 -59 -15 -138 38 -29 19 -75 43 -103 52 l-50 17
0 79 0 79 138 0 c339 0 614 -67 948 -231 562 -276 942 -722 1104 -1296 17 -60
44 -187 61 -283 51 -303 89 -429 216 -715 42 -93 87 -199 100 -235 24 -62 72
-217 73 -232 0 -15 -132 -100 -255 -164 l-127 -67 6 -74 c28 -302 24 -637 -9
-748 -20 -71 -46 -94 -180 -160 -323 -157 -714 -196 -1069 -105 -94 24 -108
24 -145 6 -56 -29 -68 -107 -23 -156 30 -33 110 -58 277 -85 392 -65 852 18
1158 209 130 81 171 146 202 324 17 92 23 438 10 588 l-6 79 82 45 c109 59
219 140 255 187 26 35 29 45 28 113 -1 100 -56 265 -179 545 -51 116 -108 260
-128 320 -34 108 -42 143 -91 420 -153 856 -702 1489 -1560 1797 -244 87 -480
128 -743 128 l-142 0 -3 426 -3 426 -28 24 c-41 35 -97 33 -139 -5z m-244
-1137 c7 -8 41 -30 76 -47 99 -49 95 -65 -45 -170 -144 -108 -256 -144 -417
-135 -70 4 -83 8 -106 32 -24 24 -27 33 -25 88 2 33 4 62 6 64 4 4 481 182
491 183 5 1 14 -6 20 -15z m526 -340 c67 -63 83 -67 165 -38 120 42 235 24
322 -51 53 -45 69 -83 54 -128 -18 -53 -74 -112 -132 -137 -55 -23 -53 -23
-220 -4 -40 5 -50 2 -68 -17 -91 -98 107 -195 297 -145 111 30 197 102 253
212 l34 66 90 -7 c133 -9 185 -26 232 -78 23 -24 48 -66 57 -94 21 -64 38 -78
105 -92 76 -16 151 -67 151 -103 0 -5 -30 -8 -67 -8 -138 0 -268 -51 -368
-142 l-51 -46 -47 10 c-123 26 -264 -56 -299 -175 -10 -33 -9 -41 8 -64 45
-60 100 -50 149 28 25 39 67 64 91 55 9 -4 9 -18 -2 -68 -27 -127 -11 -172 62
-172 47 0 60 17 84 108 25 97 53 148 119 209 79 74 126 91 251 92 99 0 109 -2
165 -31 230 -121 280 -419 100 -599 -89 -90 -190 -124 -268 -91 -42 17 -93 76
-106 122 -14 52 -38 74 -78 74 -38 0 -83 -37 -83 -68 0 -37 28 -110 59 -155
51 -75 136 -124 245 -142 l39 -6 -49 -50 c-62 -64 -153 -109 -230 -116 -94 -8
-441 23 -470 42 -31 20 -30 30 3 69 41 49 63 105 63 168 0 50 -3 59 -27 78
-20 16 -36 20 -58 16 -40 -8 -61 -36 -69 -89 -5 -30 -16 -53 -37 -73 -27 -26
-36 -29 -82 -25 -29 2 -87 4 -129 5 -68 1 -80 -2 -100 -21 -31 -31 -30 -89 1
-114 18 -14 40 -19 91 -19 219 0 346 -219 218 -374 -50 -61 -95 -77 -237 -87
-69 -4 -142 -13 -161 -18 -53 -17 -57 -14 -65 37 -9 63 -37 125 -87 190 l-40
54 7 1044 7 1043 31 -15 c16 -9 51 -36 77 -60z m-1187 -42 c28 -58 96 -117
152 -131 24 -6 96 -11 160 -11 195 0 304 36 469 154 43 31 80 56 81 54 2 -2 0
-987 -3 -2190 l-5 -2188 -32 0 c-18 0 -84 9 -147 20 -418 72 -782 263 -1093
575 -371 370 -642 917 -722 1454 -24 162 -24 503 1 661 21 136 55 290 64 290
4 0 15 -12 26 -26 16 -23 18 -40 14 -133 -3 -58 -1 -120 4 -138 5 -19 68 -98
158 -199 96 -108 150 -176 150 -190 0 -12 -9 -43 -21 -69 -26 -60 -40 -295
-19 -344 8 -20 72 -79 185 -170 95 -77 175 -147 179 -156 3 -9 3 -105 -1 -213
l-6 -197 41 -104 c41 -99 42 -107 42 -215 0 -125 9 -148 66 -172 53 -22 94
-17 154 19 60 36 90 80 90 134 0 18 9 50 20 71 11 21 24 60 29 87 7 38 17 56
43 77 93 76 107 91 124 126 10 20 23 71 29 112 l10 75 45 22 c25 12 56 25 70
27 17 4 32 17 42 40 9 19 28 42 43 53 14 10 59 44 99 75 107 82 117 128 61
265 -14 35 -25 76 -25 91 0 38 -32 78 -73 91 -17 5 -66 13 -107 16 -95 9 -116
21 -124 78 -7 47 -33 83 -71 97 -12 5 -67 12 -120 16 -125 9 -135 17 -135 113
0 55 -4 74 -21 95 -31 40 -54 45 -227 56 -224 14 -276 25 -324 68 -21 19 -47
47 -58 62 -19 27 -19 27 9 81 15 30 40 71 54 92 14 20 28 55 32 77 4 22 12 43
18 47 5 3 65 7 131 8 108 1 127 4 178 27 31 14 80 44 110 66 29 23 91 54 139
72 109 39 171 78 204 129 35 53 42 109 21 166 -20 52 -55 80 -124 100 -74 22
-80 33 -84 161 -3 104 -5 113 -33 154 -16 23 -76 126 -132 229 l-102 186 35
30 c20 17 70 53 112 82 75 51 77 52 85 30 5 -12 18 -41 30 -65z m-318 -339
c37 -71 86 -159 108 -198 39 -66 41 -74 42 -160 3 -144 55 -228 166 -265 52
-18 52 -18 28 -33 -13 -9 -62 -30 -109 -46 -50 -19 -120 -55 -169 -89 l-84
-57 -141 -6 c-78 -3 -153 -10 -167 -16 -52 -22 -119 -125 -119 -182 0 -7 -13
-29 -29 -49 -17 -20 -33 -49 -36 -64 -4 -15 -13 -32 -21 -39 -11 -9 -13 7 -11
107 2 107 0 123 -20 161 -13 23 -23 52 -23 64 0 12 -10 38 -21 59 l-21 38 27
83 c69 210 175 420 288 572 57 77 219 247 236 247 4 0 38 -57 76 -127z m6
-1639 l87 -6 4 -49 c12 -118 105 -195 249 -206 l75 -6 18 -43 c10 -24 36 -60
59 -79 43 -37 77 -49 168 -60 l56 -6 26 -66 c15 -37 26 -67 24 -68 -1 -1 -36
-27 -79 -58 -42 -31 -84 -67 -95 -79 -10 -13 -39 -33 -64 -45 -103 -48 -158
-125 -159 -220 0 -28 -3 -58 -6 -67 -3 -9 -35 -38 -70 -66 -69 -54 -114 -125
-114 -179 0 -16 -4 -33 -10 -36 -5 -3 -10 -1 -10 5 0 6 -19 55 -41 108 l-42
97 11 177 c12 198 5 250 -41 311 -14 18 -95 89 -181 158 l-156 124 6 90 c4 56
14 107 26 134 11 25 23 70 25 101 l5 55 72 -7 c39 -4 110 -11 157 -14z"/>
<path d="M6140 4615 l0 -85 110 0 110 0 0 -311 0 -311 -25 16 c-14 9 -35 23
-48 31 -13 8 -49 24 -81 35 -186 64 -394 16 -520 -120 -107 -116 -152 -261
-143 -464 5 -132 29 -222 83 -313 108 -185 337 -266 547 -194 63 22 93 40 160
94 l47 39 0 -66 0 -66 190 0 190 0 0 85 0 85 -90 0 -90 0 0 815 0 815 -220 0
-220 0 0 -85z m80 -790 c25 -8 66 -30 92 -48 l48 -32 0 -286 0 -287 -37 -32
c-20 -18 -67 -47 -103 -64 -54 -25 -77 -30 -140 -31 -94 0 -141 17 -198 68
-154 143 -164 490 -18 645 35 38 87 68 143 82 50 12 157 5 213 -15z"/>
<path d="M2951 4520 c-134 -31 -162 -198 -47 -284 41 -31 130 -29 175 3 46 33
75 100 66 153 -8 48 -63 113 -103 122 -15 4 -34 8 -42 10 -8 2 -30 0 -49 -4z"/>
<path d="M130 4360 l0 -90 110 0 110 0 -5 -57 c-3 -32 -12 -276 -20 -543 -9
-267 -18 -509 -21 -537 l-5 -53 -105 0 -104 0 0 -90 0 -90 320 0 320 0 0 90 0
90 -110 0 c-107 0 -110 1 -110 23 0 12 9 249 20 527 11 278 20 528 20 555 1
39 3 46 11 33 5 -10 120 -285 254 -610 l244 -593 91 0 92 0 248 604 c137 332
252 606 255 609 3 3 5 -12 5 -34 0 -21 9 -266 20 -544 11 -278 20 -520 20
-537 l0 -33 -110 0 -110 0 0 -90 0 -90 320 0 320 0 0 90 0 90 -104 0 -104 0
-6 63 c-3 34 -12 262 -21 507 -8 245 -18 484 -21 533 l-6 87 111 0 111 0 0 90
0 90 -282 0 -283 0 -225 -565 c-124 -311 -228 -565 -231 -565 -3 0 -106 254
-229 565 l-224 565 -283 0 -283 0 0 -90z"/>
<path d="M4454 4001 c-88 -24 -174 -67 -242 -120 l-52 -41 0 75 0 75 -200 0
-200 0 0 -85 0 -85 90 0 90 0 0 -375 0 -375 -90 0 -90 0 0 -85 0 -85 295 0
295 0 0 85 0 84 -92 3 -93 3 -2 305 -3 305 59 42 c100 73 183 106 276 111 71
3 84 1 115 -20 69 -46 70 -54 70 -420 l0 -328 -90 0 -90 0 0 -85 0 -85 295 0
295 0 0 85 0 85 -94 0 -95 0 -3 358 -3 357 -29 63 c-50 109 -131 159 -271 168
-50 3 -91 -1 -141 -15z"/>
<path d="M2710 3905 l0 -85 90 0 90 0 0 -375 0 -375 -90 0 -90 0 0 -85 0 -85
295 0 295 0 0 85 0 84 -92 3 -93 3 -3 458 -2 457 -200 0 -200 0 0 -85z"/>
<path d="M6180 2455 l0 -85 110 0 110 0 0 -311 0 -311 -25 16 c-14 9 -35 23
-48 31 -13 8 -49 24 -81 35 -186 64 -394 16 -520 -120 -107 -116 -152 -261
-143 -464 5 -132 29 -222 83 -313 108 -185 337 -266 547 -194 63 22 93 40 160
94 l47 39 0 -66 0 -66 190 0 190 0 0 85 0 85 -90 0 -90 0 0 815 0 815 -220 0
-220 0 0 -85z m80 -790 c25 -8 66 -30 92 -48 l48 -32 0 -286 0 -287 -37 -32
c-20 -18 -67 -47 -103 -64 -54 -25 -77 -30 -140 -31 -94 0 -141 17 -198 68
-154 143 -164 490 -18 645 35 38 87 68 143 82 50 12 157 5 213 -15z"/>
<path d="M120 2200 l0 -90 115 0 115 0 0 -595 0 -595 -115 0 -115 0 0 -90 0
-90 350 0 350 0 0 90 0 90 -125 0 -125 0 0 235 0 235 300 0 300 0 0 95 0 95
-300 0 -300 0 0 265 0 265 290 0 290 0 0 -140 0 -140 105 0 105 0 0 230 0 230
-620 0 -620 0 0 -90z"/>
<path d="M2424 1845 c-246 -53 -394 -264 -394 -560 0 -286 131 -478 375 -551
43 -13 94 -18 180 -18 129 0 216 18 329 68 l56 25 0 87 c0 65 -3 85 -12 81
-238 -107 -406 -123 -541 -50 -85 47 -149 144 -163 246 l-7 47 392 0 391 0 0
88 c-1 229 -96 419 -250 497 -101 51 -235 66 -356 40z m241 -175 c78 -33 143
-136 158 -247 l5 -43 -290 0 -291 0 6 43 c13 93 75 190 153 238 66 40 178 44
259 9z"/>
<path d="M4204 1845 c-246 -53 -394 -264 -394 -560 0 -286 131 -478 375 -551
43 -13 94 -18 180 -18 129 0 216 18 329 68 l56 25 0 87 c0 65 -3 85 -12 81
-238 -107 -406 -123 -541 -50 -85 47 -149 144 -163 246 l-7 47 392 0 391 0 0
88 c-1 229 -96 419 -250 497 -101 51 -235 66 -356 40z m241 -175 c78 -33 143
-136 158 -247 l5 -43 -290 0 -291 0 6 43 c13 93 75 190 153 238 66 40 178 44
259 9z"/>
</g>
</svg>
